<svg width="29" height="29" viewBox="0 0 29 29" fill="none" xmlns="http://www.w3.org/2000/svg">
<path d="M23.1678 12.5506C20.8478 17.11 17.11 20.8478 12.5506 23.1678L9.00611 19.6233C8.555 19.1722 7.92667 19.0433 7.36278 19.2206C5.55833 19.8167 3.625 20.1389 1.61111 20.1389C1.18382 20.1389 0.774023 20.3086 0.471882 20.6108C0.169739 20.9129 0 21.3227 0 21.75V27.3889C0 27.8162 0.169739 28.226 0.471882 28.5281C0.774023 28.8303 1.18382 29 1.61111 29C8.8751 29 15.8416 26.1144 20.978 20.978C26.1144 15.8416 29 8.8751 29 1.61111C29 1.18382 28.8303 0.774025 28.5281 0.471883C28.226 0.169742 27.8162 0 27.3889 0H21.75C21.3227 0 20.9129 0.169742 20.6108 0.471883C20.3086 0.774025 20.1389 1.18382 20.1389 1.61111C20.1389 3.625 19.8167 5.55833 19.2206 7.36278C19.0433 7.92667 19.1722 8.555 19.6233 9.00611L23.1678 12.5506Z" fill="#109CA9"/>
</svg>
