<svg width="28" height="29" viewBox="0 0 28 29" fill="none" xmlns="http://www.w3.org/2000/svg">
<path d="M14.0563 0C6.37387 0 0.112563 6.4525 0.112563 14.3695C0.112563 16.907 0.759799 19.372 1.96985 21.547L0 29L7.38693 26.999C9.42714 28.1445 11.7206 28.7535 14.0563 28.7535C21.7387 28.7535 28 22.301 28 14.384C28 10.5415 26.5508 6.931 23.9196 4.2195C21.2884 1.4935 17.7849 0 14.0563 0ZM14.0704 2.4215C17.1658 2.4215 20.0643 3.6685 22.2593 5.9305C24.4402 8.1925 25.6503 11.194 25.6503 14.384C25.6503 20.967 20.4442 26.3175 14.0563 26.3175C11.9739 26.3175 9.93367 25.752 8.1608 24.65L7.73869 24.4035L3.34874 25.5925L4.51658 21.1845L4.23518 20.7205C3.08141 18.85 2.46231 16.6315 2.46231 14.3695C2.47638 7.7865 7.66834 2.4215 14.0704 2.4215ZM9.11759 7.7285C8.89246 7.7285 8.51256 7.8155 8.18894 8.178C7.8794 8.5405 6.96482 9.425 6.96482 11.1795C6.96482 12.9485 8.21708 14.645 8.37186 14.8915C8.56884 15.138 10.8482 18.763 14.3518 20.3C15.1819 20.6915 15.8291 20.909 16.3357 21.0685C17.1658 21.344 17.9256 21.3005 18.5307 21.2135C19.206 21.112 20.5849 20.3435 20.8804 19.5025C21.1759 18.6615 21.1759 17.951 21.0915 17.7915C20.993 17.6465 20.7678 17.5595 20.4161 17.4C20.0643 17.197 18.3477 16.327 18.0382 16.211C17.7146 16.095 17.5176 16.037 17.2502 16.385C17.0251 16.7475 16.3497 17.5595 16.1528 17.7915C15.9417 18.038 15.7447 18.067 15.407 17.893C15.0412 17.7045 13.9156 17.3275 12.593 16.1095C11.5518 15.1525 10.8623 13.978 10.6513 13.6155C10.4824 13.2675 10.6372 13.05 10.806 12.8905C10.9608 12.731 11.1859 12.47 11.3266 12.2525C11.5095 12.0495 11.5658 11.89 11.6784 11.658C11.791 11.4115 11.7347 11.2085 11.6503 11.0345C11.5658 10.875 10.8623 9.077 10.5668 8.3665C10.2854 7.6705 10.004 7.7575 9.77889 7.743C9.58191 7.743 9.35678 7.7285 9.11759 7.7285Z" fill="#109CA9"/>
</svg>
